%TF.GenerationSoftware,KiCad,Pcbnew,(5.1.7)-1*%
%TF.CreationDate,2020-11-01T13:45:23+07:00*%
%TF.ProjectId,sesame,73657361-6d65-42e6-9b69-6361645f7063,rev?*%
%TF.SameCoordinates,Original*%
%TF.FileFunction,Soldermask,Top*%
%TF.FilePolarity,Negative*%
%FSLAX46Y46*%
G04 Gerber Fmt 4.6, Leading zero omitted, Abs format (unit mm)*
G04 Created by KiCad (PCBNEW (5.1.7)-1) date 2020-11-01 13:45:23*
%MOMM*%
%LPD*%
G01*
G04 APERTURE LIST*
%ADD10O,1.800000X1.800000*%
%ADD11C,1.200000*%
%ADD12C,3.100000*%
%ADD13C,1.300000*%
%ADD14C,4.087800*%
%ADD15C,1.850000*%
%ADD16C,3.148000*%
%ADD17O,1.700000X1.700000*%
%ADD18C,1.600000*%
%ADD19C,2.100000*%
%ADD20C,1.700000*%
G04 APERTURE END LIST*
D10*
%TO.C,AVR1*%
X173633750Y-74173750D03*
X171093750Y-74173750D03*
X173633750Y-71633750D03*
X171093750Y-71633750D03*
X173633750Y-69093750D03*
G36*
G01*
X170193750Y-69943750D02*
X170193750Y-68243750D01*
G75*
G02*
X170243750Y-68193750I50000J0D01*
G01*
X171943750Y-68193750D01*
G75*
G02*
X171993750Y-68243750I0J-50000D01*
G01*
X171993750Y-69943750D01*
G75*
G02*
X171943750Y-69993750I-50000J0D01*
G01*
X170243750Y-69993750D01*
G75*
G02*
X170193750Y-69943750I0J50000D01*
G01*
G37*
%TD*%
%TO.C,USB1*%
G36*
G01*
X158797549Y-75384011D02*
X158943087Y-76068715D01*
G75*
G02*
X158442434Y-76839654I-635796J-135143D01*
G01*
X158442434Y-76839654D01*
G75*
G02*
X157671495Y-76339001I-135143J635796D01*
G01*
X157525957Y-75654297D01*
G75*
G02*
X158026610Y-74883358I635796J135143D01*
G01*
X158026610Y-74883358D01*
G75*
G02*
X158797549Y-75384011I135143J-635796D01*
G01*
G37*
G36*
G01*
X165938027Y-73866255D02*
X166083565Y-74550959D01*
G75*
G02*
X165582912Y-75321898I-635796J-135143D01*
G01*
X165582912Y-75321898D01*
G75*
G02*
X164811973Y-74821245I-135143J635796D01*
G01*
X164666435Y-74136541D01*
G75*
G02*
X165167088Y-73365602I635796J135143D01*
G01*
X165167088Y-73365602D01*
G75*
G02*
X165938027Y-73866255I135143J-635796D01*
G01*
G37*
D11*
X163494544Y-75356858D03*
X162462532Y-74349410D03*
X161929508Y-75689517D03*
X160897496Y-74682069D03*
X160364472Y-76022175D03*
G36*
G01*
X164935892Y-69151584D02*
X165081430Y-69836288D01*
G75*
G02*
X164580777Y-70607227I-635796J-135143D01*
G01*
X164580777Y-70607227D01*
G75*
G02*
X163809838Y-70106574I-135143J635796D01*
G01*
X163664300Y-69421870D01*
G75*
G02*
X164164953Y-68650931I635796J135143D01*
G01*
X164164953Y-68650931D01*
G75*
G02*
X164935892Y-69151584I135143J-635796D01*
G01*
G37*
G36*
G01*
X157795415Y-70669339D02*
X157940953Y-71354043D01*
G75*
G02*
X157440300Y-72124982I-635796J-135143D01*
G01*
X157440300Y-72124982D01*
G75*
G02*
X156669361Y-71624329I-135143J635796D01*
G01*
X156523823Y-70939625D01*
G75*
G02*
X157024476Y-70168686I635796J135143D01*
G01*
X157024476Y-70168686D01*
G75*
G02*
X157795415Y-70669339I135143J-635796D01*
G01*
G37*
%TD*%
D12*
%TO.C,REF\u002A\u002A*%
X278955500Y-75565000D03*
%TD*%
D13*
%TO.C,C1*%
X151771721Y-73665632D03*
G36*
G01*
X149793451Y-74699532D02*
X149543957Y-73525754D01*
G75*
G02*
X149582468Y-73466451I48907J10396D01*
G01*
X150756246Y-73216957D01*
G75*
G02*
X150815549Y-73255468I10396J-48907D01*
G01*
X151065043Y-74429246D01*
G75*
G02*
X151026532Y-74488549I-48907J-10396D01*
G01*
X149852754Y-74738043D01*
G75*
G02*
X149793451Y-74699532I-10396J48907D01*
G01*
G37*
%TD*%
D14*
%TO.C,MX23*%
X185674000Y-119697500D03*
D15*
X180705010Y-118641309D03*
X190642990Y-120753691D03*
%TD*%
D12*
%TO.C,REF\u002A\u002A*%
X142430500Y-75565000D03*
%TD*%
D14*
%TO.C,MX61*%
X356171500Y-146494500D03*
D15*
X351091500Y-146494500D03*
X361251500Y-146494500D03*
D16*
X344265250Y-139509500D03*
X368077750Y-139509500D03*
D14*
X344265250Y-154749500D03*
X368077750Y-154749500D03*
%TD*%
%TO.C,MX59*%
X346710000Y-146494500D03*
D15*
X341630000Y-146494500D03*
X351790000Y-146494500D03*
%TD*%
D14*
%TO.C,MX31*%
X359664000Y-108394500D03*
D15*
X354584000Y-108394500D03*
X364744000Y-108394500D03*
%TD*%
D14*
%TO.C,MX15*%
X350837500Y-89281000D03*
D15*
X345757500Y-89281000D03*
X355917500Y-89281000D03*
D16*
X338931250Y-82296000D03*
X362743750Y-82296000D03*
D14*
X338931250Y-97536000D03*
X362743750Y-97536000D03*
%TD*%
%TO.C,MX33*%
X83820000Y-127444500D03*
D15*
X78740000Y-127444500D03*
X88900000Y-127444500D03*
%TD*%
D14*
%TO.C,MX18*%
X85471000Y-108394500D03*
D15*
X80391000Y-108394500D03*
X90551000Y-108394500D03*
%TD*%
D14*
%TO.C,MX69*%
X79070200Y-127457200D03*
D15*
X73990200Y-127457200D03*
X84150200Y-127457200D03*
%TD*%
D17*
%TO.C,D60*%
X334772000Y-144018000D03*
G36*
G01*
X335572000Y-152488000D02*
X333972000Y-152488000D01*
G75*
G02*
X333922000Y-152438000I0J50000D01*
G01*
X333922000Y-150838000D01*
G75*
G02*
X333972000Y-150788000I50000J0D01*
G01*
X335572000Y-150788000D01*
G75*
G02*
X335622000Y-150838000I0J-50000D01*
G01*
X335622000Y-152438000D01*
G75*
G02*
X335572000Y-152488000I-50000J0D01*
G01*
G37*
%TD*%
%TO.C,U1*%
X233045000Y-85026500D03*
X184785000Y-69786500D03*
X230505000Y-85026500D03*
X187325000Y-69786500D03*
X227965000Y-85026500D03*
X189865000Y-69786500D03*
X225425000Y-85026500D03*
X192405000Y-69786500D03*
X222885000Y-85026500D03*
X194945000Y-69786500D03*
X220345000Y-85026500D03*
X197485000Y-69786500D03*
X217805000Y-85026500D03*
X200025000Y-69786500D03*
X215265000Y-85026500D03*
X202565000Y-69786500D03*
X212725000Y-85026500D03*
X205105000Y-69786500D03*
X210185000Y-85026500D03*
X207645000Y-69786500D03*
X207645000Y-85026500D03*
X210185000Y-69786500D03*
X205105000Y-85026500D03*
X212725000Y-69786500D03*
X202565000Y-85026500D03*
X215265000Y-69786500D03*
X200025000Y-85026500D03*
X217805000Y-69786500D03*
X197485000Y-85026500D03*
X220345000Y-69786500D03*
X194945000Y-85026500D03*
X222885000Y-69786500D03*
X192405000Y-85026500D03*
X225425000Y-69786500D03*
X189865000Y-85026500D03*
X227965000Y-69786500D03*
X187325000Y-85026500D03*
X230505000Y-69786500D03*
X184785000Y-85026500D03*
G36*
G01*
X232245000Y-68936500D02*
X233845000Y-68936500D01*
G75*
G02*
X233895000Y-68986500I0J-50000D01*
G01*
X233895000Y-70586500D01*
G75*
G02*
X233845000Y-70636500I-50000J0D01*
G01*
X232245000Y-70636500D01*
G75*
G02*
X232195000Y-70586500I0J50000D01*
G01*
X232195000Y-68986500D01*
G75*
G02*
X232245000Y-68936500I50000J0D01*
G01*
G37*
%TD*%
D14*
%TO.C,MX5*%
X143065500Y-91122500D03*
D15*
X138096510Y-90066309D03*
X148034490Y-92178691D03*
%TD*%
D12*
%TO.C,REF\u002A\u002A*%
X211836000Y-181991000D03*
%TD*%
%TO.C,REF\u002A\u002A*%
X379476000Y-172212000D03*
%TD*%
%TO.C,REF\u002A\u002A*%
X379476000Y-81153000D03*
%TD*%
%TO.C,REF\u002A\u002A*%
X47117000Y-81153000D03*
%TD*%
%TO.C,REF\u002A\u002A*%
X47117000Y-172212000D03*
%TD*%
%TO.C,REF\u002A\u002A*%
X211836000Y-77089000D03*
%TD*%
D18*
%TO.C,XTAL1*%
X239331500Y-79302000D03*
X239331500Y-74422000D03*
%TD*%
D14*
%TO.C,MX24*%
X221742000Y-121666000D03*
D15*
X216773010Y-122722191D03*
X226710990Y-120609809D03*
%TD*%
D14*
%TO.C,MX28*%
X298132500Y-107315000D03*
D15*
X293052500Y-107315000D03*
X303212500Y-107315000D03*
%TD*%
D14*
%TO.C,MX66*%
X245300500Y-175069500D03*
D15*
X240331510Y-176125691D03*
X250269490Y-174013309D03*
D16*
X235106693Y-184377310D03*
X258398833Y-179426412D03*
D14*
X231938119Y-169470340D03*
X255230259Y-164519443D03*
%TD*%
%TO.C,MX65*%
X194564000Y-179959000D03*
D15*
X189595010Y-178902809D03*
X199532990Y-181015191D03*
%TD*%
D14*
%TO.C,MX64*%
X164274500Y-173545500D03*
D15*
X159305510Y-172489309D03*
X169243490Y-174601691D03*
D16*
X151176167Y-177902412D03*
X174468307Y-182853310D03*
D14*
X154344741Y-162995443D03*
X177636881Y-167946340D03*
%TD*%
%TO.C,MX46*%
X356806500Y-127444500D03*
D15*
X351726500Y-127444500D03*
X361886500Y-127444500D03*
D16*
X344900250Y-134429500D03*
X368712750Y-134429500D03*
D14*
X344900250Y-119189500D03*
X368712750Y-119189500D03*
%TD*%
%TO.C,MX47*%
X84391500Y-146494500D03*
D15*
X79311500Y-146494500D03*
X89471500Y-146494500D03*
D16*
X72485250Y-139509500D03*
X96297750Y-139509500D03*
D14*
X72485250Y-154749500D03*
X96297750Y-154749500D03*
%TD*%
%TO.C,MX16*%
X360299000Y-89281000D03*
D15*
X355219000Y-89281000D03*
X365379000Y-89281000D03*
%TD*%
D14*
%TO.C,MX45*%
X341249000Y-89281000D03*
D15*
X336169000Y-89281000D03*
X346329000Y-89281000D03*
%TD*%
D14*
%TO.C,MX68*%
X364426500Y-165544500D03*
D15*
X359346500Y-165544500D03*
X369506500Y-165544500D03*
%TD*%
D14*
%TO.C,MX67*%
X285750000Y-168021000D03*
D15*
X280781010Y-169077191D03*
X290718990Y-166964809D03*
%TD*%
D14*
%TO.C,MX63*%
X131000500Y-168021000D03*
D15*
X126031510Y-166964809D03*
X135969490Y-169077191D03*
%TD*%
D14*
%TO.C,MX62*%
X77279500Y-165481000D03*
D15*
X72199500Y-165481000D03*
X82359500Y-165481000D03*
%TD*%
D14*
%TO.C,MX60*%
X372872000Y-146494500D03*
D15*
X367792000Y-146494500D03*
X377952000Y-146494500D03*
%TD*%
D14*
%TO.C,MX58*%
X320484500Y-146494500D03*
D15*
X315404500Y-146494500D03*
X325564500Y-146494500D03*
%TD*%
D14*
%TO.C,MX57*%
X301434500Y-146494500D03*
D15*
X296354500Y-146494500D03*
X306514500Y-146494500D03*
%TD*%
D14*
%TO.C,MX56*%
X280924000Y-148018500D03*
D15*
X275955010Y-149074691D03*
X285892990Y-146962309D03*
%TD*%
D14*
%TO.C,MX55*%
X262255000Y-151955500D03*
D15*
X257286010Y-153011691D03*
X267223990Y-150899309D03*
%TD*%
D14*
%TO.C,MX54*%
X243649500Y-155956000D03*
D15*
X238680510Y-157012191D03*
X248618490Y-154899809D03*
%TD*%
D14*
%TO.C,MX53*%
X225044000Y-159893000D03*
D15*
X220075010Y-160949191D03*
X230012990Y-158836809D03*
%TD*%
D14*
%TO.C,MX52*%
X191706500Y-159893000D03*
D15*
X186737510Y-158836809D03*
X196675490Y-160949191D03*
%TD*%
D14*
%TO.C,MX51*%
X173101000Y-155956000D03*
D15*
X168132010Y-154899809D03*
X178069990Y-157012191D03*
%TD*%
D14*
%TO.C,MX50*%
X154432000Y-152019000D03*
D15*
X149463010Y-150962809D03*
X159400990Y-153075191D03*
%TD*%
D14*
%TO.C,MX49*%
X135826500Y-148018500D03*
D15*
X130857510Y-146962309D03*
X140795490Y-149074691D03*
%TD*%
D14*
%TO.C,MX48*%
X115316000Y-146431000D03*
D15*
X110236000Y-146431000D03*
X120396000Y-146431000D03*
%TD*%
D14*
%TO.C,MX44*%
X325818500Y-127444500D03*
D15*
X320738500Y-127444500D03*
X330898500Y-127444500D03*
%TD*%
D14*
%TO.C,MX43*%
X306768500Y-127444500D03*
D15*
X301688500Y-127444500D03*
X311848500Y-127444500D03*
%TD*%
D14*
%TO.C,MX42*%
X286258000Y-127444500D03*
D15*
X281289010Y-128500691D03*
X291226990Y-126388309D03*
%TD*%
D14*
%TO.C,MX41*%
X267652500Y-131381500D03*
D15*
X262683510Y-132437691D03*
X272621490Y-130325309D03*
%TD*%
D14*
%TO.C,MX40*%
X248983500Y-135382000D03*
D15*
X244014510Y-136438191D03*
X253952490Y-134325809D03*
%TD*%
D14*
%TO.C,MX39*%
X230378000Y-139319000D03*
D15*
X225409010Y-140375191D03*
X235346990Y-138262809D03*
%TD*%
D14*
%TO.C,MX38*%
X186372500Y-139319000D03*
D15*
X181403510Y-138262809D03*
X191341490Y-140375191D03*
%TD*%
D14*
%TO.C,MX37*%
X167767000Y-135382000D03*
D15*
X162798010Y-134325809D03*
X172735990Y-136438191D03*
%TD*%
D14*
%TO.C,MX36*%
X149098000Y-131381500D03*
D15*
X144129010Y-130325309D03*
X154066990Y-132437691D03*
%TD*%
D14*
%TO.C,MX35*%
X130492500Y-127444500D03*
D15*
X125523510Y-126388309D03*
X135461490Y-128500691D03*
%TD*%
D14*
%TO.C,MX34*%
X109982000Y-127444500D03*
D15*
X104902000Y-127444500D03*
X115062000Y-127444500D03*
%TD*%
D14*
%TO.C,MX32*%
X53594000Y-125285500D03*
D15*
X48514000Y-125285500D03*
X58674000Y-125285500D03*
%TD*%
D14*
%TO.C,MX30*%
X335851500Y-108394500D03*
D15*
X330771500Y-108394500D03*
X340931500Y-108394500D03*
%TD*%
D14*
%TO.C,MX29*%
X316801500Y-108394500D03*
D15*
X311721500Y-108394500D03*
X321881500Y-108394500D03*
%TD*%
D14*
%TO.C,MX27*%
X277622000Y-109791500D03*
D15*
X272653010Y-110847691D03*
X282590990Y-108735309D03*
%TD*%
D14*
%TO.C,MX26*%
X259016500Y-113728500D03*
D15*
X254047510Y-114784691D03*
X263985490Y-112672309D03*
%TD*%
D14*
%TO.C,MX25*%
X240411000Y-117665500D03*
D15*
X235442010Y-118721691D03*
X245379990Y-116609309D03*
%TD*%
D14*
%TO.C,MX22*%
X167068500Y-115697000D03*
D15*
X162099510Y-114640809D03*
X172037490Y-116753191D03*
%TD*%
D14*
%TO.C,MX21*%
X148399500Y-111760000D03*
D15*
X143430510Y-110703809D03*
X153368490Y-112816191D03*
%TD*%
D14*
%TO.C,MX20*%
X129794000Y-107823000D03*
D15*
X124825010Y-106766809D03*
X134762990Y-108879191D03*
%TD*%
D14*
%TO.C,MX19*%
X109283500Y-108394500D03*
D15*
X104203500Y-108394500D03*
X114363500Y-108394500D03*
%TD*%
D14*
%TO.C,MX17*%
X57721500Y-106235500D03*
D15*
X52641500Y-106235500D03*
X62801500Y-106235500D03*
%TD*%
D14*
%TO.C,MX14*%
X322199000Y-89281000D03*
D15*
X317119000Y-89281000D03*
X327279000Y-89281000D03*
%TD*%
D14*
%TO.C,MX13*%
X303530000Y-87185500D03*
D15*
X298450000Y-87185500D03*
X308610000Y-87185500D03*
%TD*%
D14*
%TO.C,MX12*%
X283019500Y-89154000D03*
D15*
X278050510Y-90210191D03*
X287988490Y-88097809D03*
%TD*%
D14*
%TO.C,MX11*%
X264350500Y-93154500D03*
D15*
X259381510Y-94210691D03*
X269319490Y-92098309D03*
%TD*%
D14*
%TO.C,MX10*%
X245745000Y-97091500D03*
D15*
X240776010Y-98147691D03*
X250713990Y-96035309D03*
%TD*%
D14*
%TO.C,MX9*%
X227139500Y-101028500D03*
D15*
X222170510Y-102084691D03*
X232108490Y-99972309D03*
%TD*%
D14*
%TO.C,MX8*%
X199009000Y-102997000D03*
D15*
X194040010Y-101940809D03*
X203977990Y-104053191D03*
%TD*%
D14*
%TO.C,MX7*%
X180340000Y-99060000D03*
D15*
X175371010Y-98003809D03*
X185308990Y-100116191D03*
%TD*%
D14*
%TO.C,MX6*%
X161734500Y-95059500D03*
D15*
X156765510Y-94003309D03*
X166703490Y-96115691D03*
%TD*%
D14*
%TO.C,MX4*%
X122555000Y-87185500D03*
D15*
X117475000Y-87185500D03*
X127635000Y-87185500D03*
%TD*%
D14*
%TO.C,MX3*%
X103981250Y-89281000D03*
D15*
X98901250Y-89281000D03*
X109061250Y-89281000D03*
%TD*%
D14*
%TO.C,MX2*%
X84931250Y-89281000D03*
D15*
X79851250Y-89281000D03*
X90011250Y-89281000D03*
%TD*%
D14*
%TO.C,MX1*%
X61849000Y-87185500D03*
D15*
X56769000Y-87185500D03*
X66929000Y-87185500D03*
%TD*%
D19*
%TO.C,Reset1*%
X267977959Y-72725426D03*
X267042357Y-77127090D03*
X261620000Y-71374000D03*
X260684397Y-75775664D03*
%TD*%
%TO.C,R6*%
G36*
G01*
X261836555Y-82199658D02*
X261836555Y-82199658D01*
G75*
G02*
X262844705Y-81544958I831425J-176725D01*
G01*
X262844705Y-81544958D01*
G75*
G02*
X263499405Y-82553108I-176725J-831425D01*
G01*
X263499405Y-82553108D01*
G75*
G02*
X262491255Y-83207808I-831425J176725D01*
G01*
X262491255Y-83207808D01*
G75*
G02*
X261836555Y-82199658I176725J831425D01*
G01*
G37*
D20*
X252730000Y-80264000D03*
%TD*%
D17*
%TO.C,R3*%
X180403500Y-80899000D03*
D20*
X170243500Y-80899000D03*
%TD*%
D17*
%TO.C,R2*%
X180403500Y-77470000D03*
D20*
X170243500Y-77470000D03*
%TD*%
D17*
%TO.C,R1*%
X180403500Y-84328000D03*
D20*
X170243500Y-84328000D03*
%TD*%
D19*
%TO.C,F1*%
X152794911Y-79043973D03*
X147828000Y-77978000D03*
%TD*%
D17*
%TO.C,D68*%
X353441000Y-162306000D03*
G36*
G01*
X354241000Y-170776000D02*
X352641000Y-170776000D01*
G75*
G02*
X352591000Y-170726000I0J50000D01*
G01*
X352591000Y-169126000D01*
G75*
G02*
X352641000Y-169076000I50000J0D01*
G01*
X354241000Y-169076000D01*
G75*
G02*
X354291000Y-169126000I0J-50000D01*
G01*
X354291000Y-170726000D01*
G75*
G02*
X354241000Y-170776000I-50000J0D01*
G01*
G37*
%TD*%
%TO.C,D67*%
G36*
G01*
X275579438Y-166224940D02*
X275579438Y-166224940D01*
G75*
G02*
X274571288Y-165570240I-176725J831425D01*
G01*
X274571288Y-165570240D01*
G75*
G02*
X275225988Y-164562090I831425J176725D01*
G01*
X275225988Y-164562090D01*
G75*
G02*
X276234138Y-165216790I176725J-831425D01*
G01*
X276234138Y-165216790D01*
G75*
G02*
X275579438Y-166224940I-831425J-176725D01*
G01*
G37*
G36*
G01*
X277946243Y-173512096D02*
X276381207Y-173844754D01*
G75*
G02*
X276321904Y-173806243I-10396J48907D01*
G01*
X275989246Y-172241207D01*
G75*
G02*
X276027757Y-172181904I48907J10396D01*
G01*
X277592793Y-171849246D01*
G75*
G02*
X277652096Y-171887757I10396J-48907D01*
G01*
X277984754Y-173452793D01*
G75*
G02*
X277946243Y-173512096I-48907J-10396D01*
G01*
G37*
%TD*%
%TO.C,D66*%
G36*
G01*
X223763438Y-177019940D02*
X223763438Y-177019940D01*
G75*
G02*
X222755288Y-176365240I-176725J831425D01*
G01*
X222755288Y-176365240D01*
G75*
G02*
X223409988Y-175357090I831425J176725D01*
G01*
X223409988Y-175357090D01*
G75*
G02*
X224418138Y-176011790I176725J-831425D01*
G01*
X224418138Y-176011790D01*
G75*
G02*
X223763438Y-177019940I-831425J-176725D01*
G01*
G37*
G36*
G01*
X226130243Y-184307096D02*
X224565207Y-184639754D01*
G75*
G02*
X224505904Y-184601243I-10396J48907D01*
G01*
X224173246Y-183036207D01*
G75*
G02*
X224211757Y-182976904I48907J10396D01*
G01*
X225776793Y-182644246D01*
G75*
G02*
X225836096Y-182682757I10396J-48907D01*
G01*
X226168754Y-184247793D01*
G75*
G02*
X226130243Y-184307096I-48907J-10396D01*
G01*
G37*
%TD*%
%TO.C,D65*%
G36*
G01*
X206893562Y-179940940D02*
X206893562Y-179940940D01*
G75*
G02*
X206238862Y-178932790I176725J831425D01*
G01*
X206238862Y-178932790D01*
G75*
G02*
X207247012Y-178278090I831425J-176725D01*
G01*
X207247012Y-178278090D01*
G75*
G02*
X207901712Y-179286240I-176725J-831425D01*
G01*
X207901712Y-179286240D01*
G75*
G02*
X206893562Y-179940940I-831425J176725D01*
G01*
G37*
G36*
G01*
X206091793Y-187560754D02*
X204526757Y-187228096D01*
G75*
G02*
X204488246Y-187168793I10396J48907D01*
G01*
X204820904Y-185603757D01*
G75*
G02*
X204880207Y-185565246I48907J-10396D01*
G01*
X206445243Y-185897904D01*
G75*
G02*
X206483754Y-185957207I-10396J-48907D01*
G01*
X206151096Y-187522243D01*
G75*
G02*
X206091793Y-187560754I-48907J10396D01*
G01*
G37*
%TD*%
%TO.C,D64*%
G36*
G01*
X183525562Y-174733940D02*
X183525562Y-174733940D01*
G75*
G02*
X182870862Y-173725790I176725J831425D01*
G01*
X182870862Y-173725790D01*
G75*
G02*
X183879012Y-173071090I831425J-176725D01*
G01*
X183879012Y-173071090D01*
G75*
G02*
X184533712Y-174079240I-176725J-831425D01*
G01*
X184533712Y-174079240D01*
G75*
G02*
X183525562Y-174733940I-831425J176725D01*
G01*
G37*
G36*
G01*
X182723793Y-182353754D02*
X181158757Y-182021096D01*
G75*
G02*
X181120246Y-181961793I10396J48907D01*
G01*
X181452904Y-180396757D01*
G75*
G02*
X181512207Y-180358246I48907J-10396D01*
G01*
X183077243Y-180690904D01*
G75*
G02*
X183115754Y-180750207I-10396J-48907D01*
G01*
X182783096Y-182315243D01*
G75*
G02*
X182723793Y-182353754I-48907J10396D01*
G01*
G37*
%TD*%
%TO.C,D63*%
G36*
G01*
X141869562Y-169272940D02*
X141869562Y-169272940D01*
G75*
G02*
X141214862Y-168264790I176725J831425D01*
G01*
X141214862Y-168264790D01*
G75*
G02*
X142223012Y-167610090I831425J-176725D01*
G01*
X142223012Y-167610090D01*
G75*
G02*
X142877712Y-168618240I-176725J-831425D01*
G01*
X142877712Y-168618240D01*
G75*
G02*
X141869562Y-169272940I-831425J176725D01*
G01*
G37*
G36*
G01*
X141067793Y-176892754D02*
X139502757Y-176560096D01*
G75*
G02*
X139464246Y-176500793I10396J48907D01*
G01*
X139796904Y-174935757D01*
G75*
G02*
X139856207Y-174897246I48907J-10396D01*
G01*
X141421243Y-175229904D01*
G75*
G02*
X141459754Y-175289207I-10396J-48907D01*
G01*
X141127096Y-176854243D01*
G75*
G02*
X141067793Y-176892754I-48907J10396D01*
G01*
G37*
%TD*%
%TO.C,D62*%
X88138000Y-164211000D03*
G36*
G01*
X88938000Y-172681000D02*
X87338000Y-172681000D01*
G75*
G02*
X87288000Y-172631000I0J50000D01*
G01*
X87288000Y-171031000D01*
G75*
G02*
X87338000Y-170981000I50000J0D01*
G01*
X88938000Y-170981000D01*
G75*
G02*
X88988000Y-171031000I0J-50000D01*
G01*
X88988000Y-172631000D01*
G75*
G02*
X88938000Y-172681000I-50000J0D01*
G01*
G37*
%TD*%
%TO.C,D61*%
X363347000Y-144018000D03*
G36*
G01*
X364147000Y-152488000D02*
X362547000Y-152488000D01*
G75*
G02*
X362497000Y-152438000I0J50000D01*
G01*
X362497000Y-150838000D01*
G75*
G02*
X362547000Y-150788000I50000J0D01*
G01*
X364147000Y-150788000D01*
G75*
G02*
X364197000Y-150838000I0J-50000D01*
G01*
X364197000Y-152438000D01*
G75*
G02*
X364147000Y-152488000I-50000J0D01*
G01*
G37*
%TD*%
%TO.C,D59*%
X310896000Y-144018000D03*
G36*
G01*
X311696000Y-152488000D02*
X310096000Y-152488000D01*
G75*
G02*
X310046000Y-152438000I0J50000D01*
G01*
X310046000Y-150838000D01*
G75*
G02*
X310096000Y-150788000I50000J0D01*
G01*
X311696000Y-150788000D01*
G75*
G02*
X311746000Y-150838000I0J-50000D01*
G01*
X311746000Y-152438000D01*
G75*
G02*
X311696000Y-152488000I-50000J0D01*
G01*
G37*
%TD*%
%TO.C,D58*%
G36*
G01*
X290884342Y-144905087D02*
X290884342Y-144905087D01*
G75*
G02*
X289950149Y-144148592I-88849J845344D01*
G01*
X289950149Y-144148592D01*
G75*
G02*
X290706644Y-143214399I845344J88849D01*
G01*
X290706644Y-143214399D01*
G75*
G02*
X291640837Y-143970894I88849J-845344D01*
G01*
X291640837Y-143970894D01*
G75*
G02*
X290884342Y-144905087I-845344J-88849D01*
G01*
G37*
G36*
G01*
X292476466Y-152399721D02*
X290885231Y-152566966D01*
G75*
G02*
X290830279Y-152522466I-5226J49726D01*
G01*
X290663034Y-150931231D01*
G75*
G02*
X290707534Y-150876279I49726J5226D01*
G01*
X292298769Y-150709034D01*
G75*
G02*
X292353721Y-150753534I5226J-49726D01*
G01*
X292520966Y-152344769D01*
G75*
G02*
X292476466Y-152399721I-49726J-5226D01*
G01*
G37*
%TD*%
%TO.C,D57*%
G36*
G01*
X271515438Y-149460940D02*
X271515438Y-149460940D01*
G75*
G02*
X270507288Y-148806240I-176725J831425D01*
G01*
X270507288Y-148806240D01*
G75*
G02*
X271161988Y-147798090I831425J176725D01*
G01*
X271161988Y-147798090D01*
G75*
G02*
X272170138Y-148452790I176725J-831425D01*
G01*
X272170138Y-148452790D01*
G75*
G02*
X271515438Y-149460940I-831425J-176725D01*
G01*
G37*
G36*
G01*
X273882243Y-156748096D02*
X272317207Y-157080754D01*
G75*
G02*
X272257904Y-157042243I-10396J48907D01*
G01*
X271925246Y-155477207D01*
G75*
G02*
X271963757Y-155417904I48907J10396D01*
G01*
X273528793Y-155085246D01*
G75*
G02*
X273588096Y-155123757I10396J-48907D01*
G01*
X273920754Y-156688793D01*
G75*
G02*
X273882243Y-156748096I-48907J-10396D01*
G01*
G37*
%TD*%
%TO.C,D56*%
G36*
G01*
X252719438Y-153270940D02*
X252719438Y-153270940D01*
G75*
G02*
X251711288Y-152616240I-176725J831425D01*
G01*
X251711288Y-152616240D01*
G75*
G02*
X252365988Y-151608090I831425J176725D01*
G01*
X252365988Y-151608090D01*
G75*
G02*
X253374138Y-152262790I176725J-831425D01*
G01*
X253374138Y-152262790D01*
G75*
G02*
X252719438Y-153270940I-831425J-176725D01*
G01*
G37*
G36*
G01*
X255086243Y-160558096D02*
X253521207Y-160890754D01*
G75*
G02*
X253461904Y-160852243I-10396J48907D01*
G01*
X253129246Y-159287207D01*
G75*
G02*
X253167757Y-159227904I48907J10396D01*
G01*
X254732793Y-158895246D01*
G75*
G02*
X254792096Y-158933757I10396J-48907D01*
G01*
X255124754Y-160498793D01*
G75*
G02*
X255086243Y-160558096I-48907J-10396D01*
G01*
G37*
%TD*%
%TO.C,D55*%
G36*
G01*
X234177438Y-157334940D02*
X234177438Y-157334940D01*
G75*
G02*
X233169288Y-156680240I-176725J831425D01*
G01*
X233169288Y-156680240D01*
G75*
G02*
X233823988Y-155672090I831425J176725D01*
G01*
X233823988Y-155672090D01*
G75*
G02*
X234832138Y-156326790I176725J-831425D01*
G01*
X234832138Y-156326790D01*
G75*
G02*
X234177438Y-157334940I-831425J-176725D01*
G01*
G37*
G36*
G01*
X236544243Y-164622096D02*
X234979207Y-164954754D01*
G75*
G02*
X234919904Y-164916243I-10396J48907D01*
G01*
X234587246Y-163351207D01*
G75*
G02*
X234625757Y-163291904I48907J10396D01*
G01*
X236190793Y-162959246D01*
G75*
G02*
X236250096Y-162997757I10396J-48907D01*
G01*
X236582754Y-164562793D01*
G75*
G02*
X236544243Y-164622096I-48907J-10396D01*
G01*
G37*
%TD*%
%TO.C,D54*%
G36*
G01*
X215635438Y-161398940D02*
X215635438Y-161398940D01*
G75*
G02*
X214627288Y-160744240I-176725J831425D01*
G01*
X214627288Y-160744240D01*
G75*
G02*
X215281988Y-159736090I831425J176725D01*
G01*
X215281988Y-159736090D01*
G75*
G02*
X216290138Y-160390790I176725J-831425D01*
G01*
X216290138Y-160390790D01*
G75*
G02*
X215635438Y-161398940I-831425J-176725D01*
G01*
G37*
G36*
G01*
X218002243Y-168686096D02*
X216437207Y-169018754D01*
G75*
G02*
X216377904Y-168980243I-10396J48907D01*
G01*
X216045246Y-167415207D01*
G75*
G02*
X216083757Y-167355904I48907J10396D01*
G01*
X217648793Y-167023246D01*
G75*
G02*
X217708096Y-167061757I10396J-48907D01*
G01*
X218040754Y-168626793D01*
G75*
G02*
X218002243Y-168686096I-48907J-10396D01*
G01*
G37*
%TD*%
%TO.C,D53*%
G36*
G01*
X201178562Y-161525940D02*
X201178562Y-161525940D01*
G75*
G02*
X200523862Y-160517790I176725J831425D01*
G01*
X200523862Y-160517790D01*
G75*
G02*
X201532012Y-159863090I831425J-176725D01*
G01*
X201532012Y-159863090D01*
G75*
G02*
X202186712Y-160871240I-176725J-831425D01*
G01*
X202186712Y-160871240D01*
G75*
G02*
X201178562Y-161525940I-831425J176725D01*
G01*
G37*
G36*
G01*
X200376793Y-169145754D02*
X198811757Y-168813096D01*
G75*
G02*
X198773246Y-168753793I10396J48907D01*
G01*
X199105904Y-167188757D01*
G75*
G02*
X199165207Y-167150246I48907J-10396D01*
G01*
X200730243Y-167482904D01*
G75*
G02*
X200768754Y-167542207I-10396J-48907D01*
G01*
X200436096Y-169107243D01*
G75*
G02*
X200376793Y-169145754I-48907J10396D01*
G01*
G37*
%TD*%
%TO.C,D52*%
G36*
G01*
X182509562Y-157334940D02*
X182509562Y-157334940D01*
G75*
G02*
X181854862Y-156326790I176725J831425D01*
G01*
X181854862Y-156326790D01*
G75*
G02*
X182863012Y-155672090I831425J-176725D01*
G01*
X182863012Y-155672090D01*
G75*
G02*
X183517712Y-156680240I-176725J-831425D01*
G01*
X183517712Y-156680240D01*
G75*
G02*
X182509562Y-157334940I-831425J176725D01*
G01*
G37*
G36*
G01*
X181707793Y-164954754D02*
X180142757Y-164622096D01*
G75*
G02*
X180104246Y-164562793I10396J48907D01*
G01*
X180436904Y-162997757D01*
G75*
G02*
X180496207Y-162959246I48907J-10396D01*
G01*
X182061243Y-163291904D01*
G75*
G02*
X182099754Y-163351207I-10396J-48907D01*
G01*
X181767096Y-164916243D01*
G75*
G02*
X181707793Y-164954754I-48907J10396D01*
G01*
G37*
%TD*%
%TO.C,D51*%
G36*
G01*
X163840562Y-153651940D02*
X163840562Y-153651940D01*
G75*
G02*
X163185862Y-152643790I176725J831425D01*
G01*
X163185862Y-152643790D01*
G75*
G02*
X164194012Y-151989090I831425J-176725D01*
G01*
X164194012Y-151989090D01*
G75*
G02*
X164848712Y-152997240I-176725J-831425D01*
G01*
X164848712Y-152997240D01*
G75*
G02*
X163840562Y-153651940I-831425J176725D01*
G01*
G37*
G36*
G01*
X163038793Y-161271754D02*
X161473757Y-160939096D01*
G75*
G02*
X161435246Y-160879793I10396J48907D01*
G01*
X161767904Y-159314757D01*
G75*
G02*
X161827207Y-159276246I48907J-10396D01*
G01*
X163392243Y-159608904D01*
G75*
G02*
X163430754Y-159668207I-10396J-48907D01*
G01*
X163098096Y-161233243D01*
G75*
G02*
X163038793Y-161271754I-48907J10396D01*
G01*
G37*
%TD*%
%TO.C,D50*%
G36*
G01*
X145298562Y-149460940D02*
X145298562Y-149460940D01*
G75*
G02*
X144643862Y-148452790I176725J831425D01*
G01*
X144643862Y-148452790D01*
G75*
G02*
X145652012Y-147798090I831425J-176725D01*
G01*
X145652012Y-147798090D01*
G75*
G02*
X146306712Y-148806240I-176725J-831425D01*
G01*
X146306712Y-148806240D01*
G75*
G02*
X145298562Y-149460940I-831425J176725D01*
G01*
G37*
G36*
G01*
X144496793Y-157080754D02*
X142931757Y-156748096D01*
G75*
G02*
X142893246Y-156688793I10396J48907D01*
G01*
X143225904Y-155123757D01*
G75*
G02*
X143285207Y-155085246I48907J-10396D01*
G01*
X144850243Y-155417904D01*
G75*
G02*
X144888754Y-155477207I-10396J-48907D01*
G01*
X144556096Y-157042243D01*
G75*
G02*
X144496793Y-157080754I-48907J10396D01*
G01*
G37*
%TD*%
%TO.C,D49*%
G36*
G01*
X125802658Y-145286087D02*
X125802658Y-145286087D01*
G75*
G02*
X125046163Y-144351894I88849J845344D01*
G01*
X125046163Y-144351894D01*
G75*
G02*
X125980356Y-143595399I845344J-88849D01*
G01*
X125980356Y-143595399D01*
G75*
G02*
X126736851Y-144529592I-88849J-845344D01*
G01*
X126736851Y-144529592D01*
G75*
G02*
X125802658Y-145286087I-845344J88849D01*
G01*
G37*
G36*
G01*
X125801769Y-152947966D02*
X124210534Y-152780721D01*
G75*
G02*
X124166034Y-152725769I5226J49726D01*
G01*
X124333279Y-151134534D01*
G75*
G02*
X124388231Y-151090034I49726J-5226D01*
G01*
X125979466Y-151257279D01*
G75*
G02*
X126023966Y-151312231I-5226J-49726D01*
G01*
X125856721Y-152903466D01*
G75*
G02*
X125801769Y-152947966I-49726J5226D01*
G01*
G37*
%TD*%
%TO.C,D48*%
X104521000Y-144907000D03*
G36*
G01*
X105321000Y-153377000D02*
X103721000Y-153377000D01*
G75*
G02*
X103671000Y-153327000I0J50000D01*
G01*
X103671000Y-151727000D01*
G75*
G02*
X103721000Y-151677000I50000J0D01*
G01*
X105321000Y-151677000D01*
G75*
G02*
X105371000Y-151727000I0J-50000D01*
G01*
X105371000Y-153327000D01*
G75*
G02*
X105321000Y-153377000I-50000J0D01*
G01*
G37*
%TD*%
%TO.C,D47*%
X336423000Y-125857000D03*
G36*
G01*
X337223000Y-134327000D02*
X335623000Y-134327000D01*
G75*
G02*
X335573000Y-134277000I0J50000D01*
G01*
X335573000Y-132677000D01*
G75*
G02*
X335623000Y-132627000I50000J0D01*
G01*
X337223000Y-132627000D01*
G75*
G02*
X337273000Y-132677000I0J-50000D01*
G01*
X337273000Y-134277000D01*
G75*
G02*
X337223000Y-134327000I-50000J0D01*
G01*
G37*
%TD*%
%TO.C,D45*%
X316230000Y-125857000D03*
G36*
G01*
X317030000Y-134327000D02*
X315430000Y-134327000D01*
G75*
G02*
X315380000Y-134277000I0J50000D01*
G01*
X315380000Y-132677000D01*
G75*
G02*
X315430000Y-132627000I50000J0D01*
G01*
X317030000Y-132627000D01*
G75*
G02*
X317080000Y-132677000I0J-50000D01*
G01*
X317080000Y-134277000D01*
G75*
G02*
X317030000Y-134327000I-50000J0D01*
G01*
G37*
%TD*%
%TO.C,D44*%
G36*
G01*
X296599342Y-126363087D02*
X296599342Y-126363087D01*
G75*
G02*
X295665149Y-125606592I-88849J845344D01*
G01*
X295665149Y-125606592D01*
G75*
G02*
X296421644Y-124672399I845344J88849D01*
G01*
X296421644Y-124672399D01*
G75*
G02*
X297355837Y-125428894I88849J-845344D01*
G01*
X297355837Y-125428894D01*
G75*
G02*
X296599342Y-126363087I-845344J-88849D01*
G01*
G37*
G36*
G01*
X298191466Y-133857721D02*
X296600231Y-134024966D01*
G75*
G02*
X296545279Y-133980466I-5226J49726D01*
G01*
X296378034Y-132389231D01*
G75*
G02*
X296422534Y-132334279I49726J5226D01*
G01*
X298013769Y-132167034D01*
G75*
G02*
X298068721Y-132211534I5226J-49726D01*
G01*
X298235966Y-133802769D01*
G75*
G02*
X298191466Y-133857721I-49726J-5226D01*
G01*
G37*
%TD*%
%TO.C,D43*%
G36*
G01*
X277230438Y-130537940D02*
X277230438Y-130537940D01*
G75*
G02*
X276222288Y-129883240I-176725J831425D01*
G01*
X276222288Y-129883240D01*
G75*
G02*
X276876988Y-128875090I831425J176725D01*
G01*
X276876988Y-128875090D01*
G75*
G02*
X277885138Y-129529790I176725J-831425D01*
G01*
X277885138Y-129529790D01*
G75*
G02*
X277230438Y-130537940I-831425J-176725D01*
G01*
G37*
G36*
G01*
X279597243Y-137825096D02*
X278032207Y-138157754D01*
G75*
G02*
X277972904Y-138119243I-10396J48907D01*
G01*
X277640246Y-136554207D01*
G75*
G02*
X277678757Y-136494904I48907J10396D01*
G01*
X279243793Y-136162246D01*
G75*
G02*
X279303096Y-136200757I10396J-48907D01*
G01*
X279635754Y-137765793D01*
G75*
G02*
X279597243Y-137825096I-48907J-10396D01*
G01*
G37*
%TD*%
%TO.C,D42*%
G36*
G01*
X258561438Y-134347940D02*
X258561438Y-134347940D01*
G75*
G02*
X257553288Y-133693240I-176725J831425D01*
G01*
X257553288Y-133693240D01*
G75*
G02*
X258207988Y-132685090I831425J176725D01*
G01*
X258207988Y-132685090D01*
G75*
G02*
X259216138Y-133339790I176725J-831425D01*
G01*
X259216138Y-133339790D01*
G75*
G02*
X258561438Y-134347940I-831425J-176725D01*
G01*
G37*
G36*
G01*
X260928243Y-141635096D02*
X259363207Y-141967754D01*
G75*
G02*
X259303904Y-141929243I-10396J48907D01*
G01*
X258971246Y-140364207D01*
G75*
G02*
X259009757Y-140304904I48907J10396D01*
G01*
X260574793Y-139972246D01*
G75*
G02*
X260634096Y-140010757I10396J-48907D01*
G01*
X260966754Y-141575793D01*
G75*
G02*
X260928243Y-141635096I-48907J-10396D01*
G01*
G37*
%TD*%
%TO.C,D41*%
G36*
G01*
X239892438Y-138411940D02*
X239892438Y-138411940D01*
G75*
G02*
X238884288Y-137757240I-176725J831425D01*
G01*
X238884288Y-137757240D01*
G75*
G02*
X239538988Y-136749090I831425J176725D01*
G01*
X239538988Y-136749090D01*
G75*
G02*
X240547138Y-137403790I176725J-831425D01*
G01*
X240547138Y-137403790D01*
G75*
G02*
X239892438Y-138411940I-831425J-176725D01*
G01*
G37*
G36*
G01*
X242259243Y-145699096D02*
X240694207Y-146031754D01*
G75*
G02*
X240634904Y-145993243I-10396J48907D01*
G01*
X240302246Y-144428207D01*
G75*
G02*
X240340757Y-144368904I48907J10396D01*
G01*
X241905793Y-144036246D01*
G75*
G02*
X241965096Y-144074757I10396J-48907D01*
G01*
X242297754Y-145639793D01*
G75*
G02*
X242259243Y-145699096I-48907J-10396D01*
G01*
G37*
%TD*%
%TO.C,D40*%
G36*
G01*
X221223438Y-142348940D02*
X221223438Y-142348940D01*
G75*
G02*
X220215288Y-141694240I-176725J831425D01*
G01*
X220215288Y-141694240D01*
G75*
G02*
X220869988Y-140686090I831425J176725D01*
G01*
X220869988Y-140686090D01*
G75*
G02*
X221878138Y-141340790I176725J-831425D01*
G01*
X221878138Y-141340790D01*
G75*
G02*
X221223438Y-142348940I-831425J-176725D01*
G01*
G37*
G36*
G01*
X223590243Y-149636096D02*
X222025207Y-149968754D01*
G75*
G02*
X221965904Y-149930243I-10396J48907D01*
G01*
X221633246Y-148365207D01*
G75*
G02*
X221671757Y-148305904I48907J10396D01*
G01*
X223236793Y-147973246D01*
G75*
G02*
X223296096Y-148011757I10396J-48907D01*
G01*
X223628754Y-149576793D01*
G75*
G02*
X223590243Y-149636096I-48907J-10396D01*
G01*
G37*
%TD*%
%TO.C,D39*%
G36*
G01*
X195590562Y-142602940D02*
X195590562Y-142602940D01*
G75*
G02*
X194935862Y-141594790I176725J831425D01*
G01*
X194935862Y-141594790D01*
G75*
G02*
X195944012Y-140940090I831425J-176725D01*
G01*
X195944012Y-140940090D01*
G75*
G02*
X196598712Y-141948240I-176725J-831425D01*
G01*
X196598712Y-141948240D01*
G75*
G02*
X195590562Y-142602940I-831425J176725D01*
G01*
G37*
G36*
G01*
X194788793Y-150222754D02*
X193223757Y-149890096D01*
G75*
G02*
X193185246Y-149830793I10396J48907D01*
G01*
X193517904Y-148265757D01*
G75*
G02*
X193577207Y-148227246I48907J-10396D01*
G01*
X195142243Y-148559904D01*
G75*
G02*
X195180754Y-148619207I-10396J-48907D01*
G01*
X194848096Y-150184243D01*
G75*
G02*
X194788793Y-150222754I-48907J10396D01*
G01*
G37*
%TD*%
%TO.C,D38*%
G36*
G01*
X176794562Y-138538940D02*
X176794562Y-138538940D01*
G75*
G02*
X176139862Y-137530790I176725J831425D01*
G01*
X176139862Y-137530790D01*
G75*
G02*
X177148012Y-136876090I831425J-176725D01*
G01*
X177148012Y-136876090D01*
G75*
G02*
X177802712Y-137884240I-176725J-831425D01*
G01*
X177802712Y-137884240D01*
G75*
G02*
X176794562Y-138538940I-831425J176725D01*
G01*
G37*
G36*
G01*
X175992793Y-146158754D02*
X174427757Y-145826096D01*
G75*
G02*
X174389246Y-145766793I10396J48907D01*
G01*
X174721904Y-144201757D01*
G75*
G02*
X174781207Y-144163246I48907J-10396D01*
G01*
X176346243Y-144495904D01*
G75*
G02*
X176384754Y-144555207I-10396J-48907D01*
G01*
X176052096Y-146120243D01*
G75*
G02*
X175992793Y-146158754I-48907J10396D01*
G01*
G37*
%TD*%
%TO.C,D37*%
G36*
G01*
X158125562Y-134601940D02*
X158125562Y-134601940D01*
G75*
G02*
X157470862Y-133593790I176725J831425D01*
G01*
X157470862Y-133593790D01*
G75*
G02*
X158479012Y-132939090I831425J-176725D01*
G01*
X158479012Y-132939090D01*
G75*
G02*
X159133712Y-133947240I-176725J-831425D01*
G01*
X159133712Y-133947240D01*
G75*
G02*
X158125562Y-134601940I-831425J176725D01*
G01*
G37*
G36*
G01*
X157323793Y-142221754D02*
X155758757Y-141889096D01*
G75*
G02*
X155720246Y-141829793I10396J48907D01*
G01*
X156052904Y-140264757D01*
G75*
G02*
X156112207Y-140226246I48907J-10396D01*
G01*
X157677243Y-140558904D01*
G75*
G02*
X157715754Y-140618207I-10396J-48907D01*
G01*
X157383096Y-142183243D01*
G75*
G02*
X157323793Y-142221754I-48907J10396D01*
G01*
G37*
%TD*%
%TO.C,D36*%
G36*
G01*
X139583562Y-130664940D02*
X139583562Y-130664940D01*
G75*
G02*
X138928862Y-129656790I176725J831425D01*
G01*
X138928862Y-129656790D01*
G75*
G02*
X139937012Y-129002090I831425J-176725D01*
G01*
X139937012Y-129002090D01*
G75*
G02*
X140591712Y-130010240I-176725J-831425D01*
G01*
X140591712Y-130010240D01*
G75*
G02*
X139583562Y-130664940I-831425J176725D01*
G01*
G37*
G36*
G01*
X138781793Y-138284754D02*
X137216757Y-137952096D01*
G75*
G02*
X137178246Y-137892793I10396J48907D01*
G01*
X137510904Y-136327757D01*
G75*
G02*
X137570207Y-136289246I48907J-10396D01*
G01*
X139135243Y-136621904D01*
G75*
G02*
X139173754Y-136681207I-10396J-48907D01*
G01*
X138841096Y-138246243D01*
G75*
G02*
X138781793Y-138284754I-48907J10396D01*
G01*
G37*
%TD*%
%TO.C,D35*%
G36*
G01*
X120214658Y-126490087D02*
X120214658Y-126490087D01*
G75*
G02*
X119458163Y-125555894I88849J845344D01*
G01*
X119458163Y-125555894D01*
G75*
G02*
X120392356Y-124799399I845344J-88849D01*
G01*
X120392356Y-124799399D01*
G75*
G02*
X121148851Y-125733592I-88849J-845344D01*
G01*
X121148851Y-125733592D01*
G75*
G02*
X120214658Y-126490087I-845344J88849D01*
G01*
G37*
G36*
G01*
X120213769Y-134151966D02*
X118622534Y-133984721D01*
G75*
G02*
X118578034Y-133929769I5226J49726D01*
G01*
X118745279Y-132338534D01*
G75*
G02*
X118800231Y-132294034I49726J-5226D01*
G01*
X120391466Y-132461279D01*
G75*
G02*
X120435966Y-132516231I-5226J-49726D01*
G01*
X120268721Y-134107466D01*
G75*
G02*
X120213769Y-134151966I-49726J5226D01*
G01*
G37*
%TD*%
%TO.C,D34*%
X97409000Y-125222000D03*
G36*
G01*
X98209000Y-133692000D02*
X96609000Y-133692000D01*
G75*
G02*
X96559000Y-133642000I0J50000D01*
G01*
X96559000Y-132042000D01*
G75*
G02*
X96609000Y-131992000I50000J0D01*
G01*
X98209000Y-131992000D01*
G75*
G02*
X98259000Y-132042000I0J-50000D01*
G01*
X98259000Y-133642000D01*
G75*
G02*
X98209000Y-133692000I-50000J0D01*
G01*
G37*
%TD*%
%TO.C,D33*%
X64389000Y-124714000D03*
G36*
G01*
X65189000Y-133184000D02*
X63589000Y-133184000D01*
G75*
G02*
X63539000Y-133134000I0J50000D01*
G01*
X63539000Y-131534000D01*
G75*
G02*
X63589000Y-131484000I50000J0D01*
G01*
X65189000Y-131484000D01*
G75*
G02*
X65239000Y-131534000I0J-50000D01*
G01*
X65239000Y-133134000D01*
G75*
G02*
X65189000Y-133184000I-50000J0D01*
G01*
G37*
%TD*%
%TO.C,D32*%
X348869000Y-106680000D03*
G36*
G01*
X349669000Y-115150000D02*
X348069000Y-115150000D01*
G75*
G02*
X348019000Y-115100000I0J50000D01*
G01*
X348019000Y-113500000D01*
G75*
G02*
X348069000Y-113450000I50000J0D01*
G01*
X349669000Y-113450000D01*
G75*
G02*
X349719000Y-113500000I0J-50000D01*
G01*
X349719000Y-115100000D01*
G75*
G02*
X349669000Y-115150000I-50000J0D01*
G01*
G37*
%TD*%
%TO.C,D31*%
X326390000Y-107569000D03*
G36*
G01*
X327190000Y-116039000D02*
X325590000Y-116039000D01*
G75*
G02*
X325540000Y-115989000I0J50000D01*
G01*
X325540000Y-114389000D01*
G75*
G02*
X325590000Y-114339000I50000J0D01*
G01*
X327190000Y-114339000D01*
G75*
G02*
X327240000Y-114389000I0J-50000D01*
G01*
X327240000Y-115989000D01*
G75*
G02*
X327190000Y-116039000I-50000J0D01*
G01*
G37*
%TD*%
%TO.C,D30*%
X307467000Y-107569000D03*
G36*
G01*
X308267000Y-116039000D02*
X306667000Y-116039000D01*
G75*
G02*
X306617000Y-115989000I0J50000D01*
G01*
X306617000Y-114389000D01*
G75*
G02*
X306667000Y-114339000I50000J0D01*
G01*
X308267000Y-114339000D01*
G75*
G02*
X308317000Y-114389000I0J-50000D01*
G01*
X308317000Y-115989000D01*
G75*
G02*
X308267000Y-116039000I-50000J0D01*
G01*
G37*
%TD*%
%TO.C,D29*%
G36*
G01*
X287963342Y-108583087D02*
X287963342Y-108583087D01*
G75*
G02*
X287029149Y-107826592I-88849J845344D01*
G01*
X287029149Y-107826592D01*
G75*
G02*
X287785644Y-106892399I845344J88849D01*
G01*
X287785644Y-106892399D01*
G75*
G02*
X288719837Y-107648894I88849J-845344D01*
G01*
X288719837Y-107648894D01*
G75*
G02*
X287963342Y-108583087I-845344J-88849D01*
G01*
G37*
G36*
G01*
X289555466Y-116077721D02*
X287964231Y-116244966D01*
G75*
G02*
X287909279Y-116200466I-5226J49726D01*
G01*
X287742034Y-114609231D01*
G75*
G02*
X287786534Y-114554279I49726J5226D01*
G01*
X289377769Y-114387034D01*
G75*
G02*
X289432721Y-114431534I5226J-49726D01*
G01*
X289599966Y-116022769D01*
G75*
G02*
X289555466Y-116077721I-49726J-5226D01*
G01*
G37*
%TD*%
%TO.C,D28*%
G36*
G01*
X268594438Y-113138940D02*
X268594438Y-113138940D01*
G75*
G02*
X267586288Y-112484240I-176725J831425D01*
G01*
X267586288Y-112484240D01*
G75*
G02*
X268240988Y-111476090I831425J176725D01*
G01*
X268240988Y-111476090D01*
G75*
G02*
X269249138Y-112130790I176725J-831425D01*
G01*
X269249138Y-112130790D01*
G75*
G02*
X268594438Y-113138940I-831425J-176725D01*
G01*
G37*
G36*
G01*
X270961243Y-120426096D02*
X269396207Y-120758754D01*
G75*
G02*
X269336904Y-120720243I-10396J48907D01*
G01*
X269004246Y-119155207D01*
G75*
G02*
X269042757Y-119095904I48907J10396D01*
G01*
X270607793Y-118763246D01*
G75*
G02*
X270667096Y-118801757I10396J-48907D01*
G01*
X270999754Y-120366793D01*
G75*
G02*
X270961243Y-120426096I-48907J-10396D01*
G01*
G37*
%TD*%
%TO.C,D27*%
G36*
G01*
X250052438Y-116948940D02*
X250052438Y-116948940D01*
G75*
G02*
X249044288Y-116294240I-176725J831425D01*
G01*
X249044288Y-116294240D01*
G75*
G02*
X249698988Y-115286090I831425J176725D01*
G01*
X249698988Y-115286090D01*
G75*
G02*
X250707138Y-115940790I176725J-831425D01*
G01*
X250707138Y-115940790D01*
G75*
G02*
X250052438Y-116948940I-831425J-176725D01*
G01*
G37*
G36*
G01*
X252419243Y-124236096D02*
X250854207Y-124568754D01*
G75*
G02*
X250794904Y-124530243I-10396J48907D01*
G01*
X250462246Y-122965207D01*
G75*
G02*
X250500757Y-122905904I48907J10396D01*
G01*
X252065793Y-122573246D01*
G75*
G02*
X252125096Y-122611757I10396J-48907D01*
G01*
X252457754Y-124176793D01*
G75*
G02*
X252419243Y-124236096I-48907J-10396D01*
G01*
G37*
%TD*%
%TO.C,D26*%
G36*
G01*
X231383438Y-121012940D02*
X231383438Y-121012940D01*
G75*
G02*
X230375288Y-120358240I-176725J831425D01*
G01*
X230375288Y-120358240D01*
G75*
G02*
X231029988Y-119350090I831425J176725D01*
G01*
X231029988Y-119350090D01*
G75*
G02*
X232038138Y-120004790I176725J-831425D01*
G01*
X232038138Y-120004790D01*
G75*
G02*
X231383438Y-121012940I-831425J-176725D01*
G01*
G37*
G36*
G01*
X233750243Y-128300096D02*
X232185207Y-128632754D01*
G75*
G02*
X232125904Y-128594243I-10396J48907D01*
G01*
X231793246Y-127029207D01*
G75*
G02*
X231831757Y-126969904I48907J10396D01*
G01*
X233396793Y-126637246D01*
G75*
G02*
X233456096Y-126675757I10396J-48907D01*
G01*
X233788754Y-128240793D01*
G75*
G02*
X233750243Y-128300096I-48907J-10396D01*
G01*
G37*
%TD*%
%TO.C,D25*%
G36*
G01*
X212714438Y-125076940D02*
X212714438Y-125076940D01*
G75*
G02*
X211706288Y-124422240I-176725J831425D01*
G01*
X211706288Y-124422240D01*
G75*
G02*
X212360988Y-123414090I831425J176725D01*
G01*
X212360988Y-123414090D01*
G75*
G02*
X213369138Y-124068790I176725J-831425D01*
G01*
X213369138Y-124068790D01*
G75*
G02*
X212714438Y-125076940I-831425J-176725D01*
G01*
G37*
G36*
G01*
X215081243Y-132364096D02*
X213516207Y-132696754D01*
G75*
G02*
X213456904Y-132658243I-10396J48907D01*
G01*
X213124246Y-131093207D01*
G75*
G02*
X213162757Y-131033904I48907J10396D01*
G01*
X214727793Y-130701246D01*
G75*
G02*
X214787096Y-130739757I10396J-48907D01*
G01*
X215119754Y-132304793D01*
G75*
G02*
X215081243Y-132364096I-48907J-10396D01*
G01*
G37*
%TD*%
%TO.C,D24*%
G36*
G01*
X194828562Y-123044940D02*
X194828562Y-123044940D01*
G75*
G02*
X194173862Y-122036790I176725J831425D01*
G01*
X194173862Y-122036790D01*
G75*
G02*
X195182012Y-121382090I831425J-176725D01*
G01*
X195182012Y-121382090D01*
G75*
G02*
X195836712Y-122390240I-176725J-831425D01*
G01*
X195836712Y-122390240D01*
G75*
G02*
X194828562Y-123044940I-831425J176725D01*
G01*
G37*
G36*
G01*
X194026793Y-130664754D02*
X192461757Y-130332096D01*
G75*
G02*
X192423246Y-130272793I10396J48907D01*
G01*
X192755904Y-128707757D01*
G75*
G02*
X192815207Y-128669246I48907J-10396D01*
G01*
X194380243Y-129001904D01*
G75*
G02*
X194418754Y-129061207I-10396J-48907D01*
G01*
X194086096Y-130626243D01*
G75*
G02*
X194026793Y-130664754I-48907J10396D01*
G01*
G37*
%TD*%
%TO.C,D23*%
G36*
G01*
X176032562Y-119107940D02*
X176032562Y-119107940D01*
G75*
G02*
X175377862Y-118099790I176725J831425D01*
G01*
X175377862Y-118099790D01*
G75*
G02*
X176386012Y-117445090I831425J-176725D01*
G01*
X176386012Y-117445090D01*
G75*
G02*
X177040712Y-118453240I-176725J-831425D01*
G01*
X177040712Y-118453240D01*
G75*
G02*
X176032562Y-119107940I-831425J176725D01*
G01*
G37*
G36*
G01*
X175230793Y-126727754D02*
X173665757Y-126395096D01*
G75*
G02*
X173627246Y-126335793I10396J48907D01*
G01*
X173959904Y-124770757D01*
G75*
G02*
X174019207Y-124732246I48907J-10396D01*
G01*
X175584243Y-125064904D01*
G75*
G02*
X175622754Y-125124207I-10396J-48907D01*
G01*
X175290096Y-126689243D01*
G75*
G02*
X175230793Y-126727754I-48907J10396D01*
G01*
G37*
%TD*%
%TO.C,D22*%
G36*
G01*
X157490562Y-115170940D02*
X157490562Y-115170940D01*
G75*
G02*
X156835862Y-114162790I176725J831425D01*
G01*
X156835862Y-114162790D01*
G75*
G02*
X157844012Y-113508090I831425J-176725D01*
G01*
X157844012Y-113508090D01*
G75*
G02*
X158498712Y-114516240I-176725J-831425D01*
G01*
X158498712Y-114516240D01*
G75*
G02*
X157490562Y-115170940I-831425J176725D01*
G01*
G37*
G36*
G01*
X156688793Y-122790754D02*
X155123757Y-122458096D01*
G75*
G02*
X155085246Y-122398793I10396J48907D01*
G01*
X155417904Y-120833757D01*
G75*
G02*
X155477207Y-120795246I48907J-10396D01*
G01*
X157042243Y-121127904D01*
G75*
G02*
X157080754Y-121187207I-10396J-48907D01*
G01*
X156748096Y-122752243D01*
G75*
G02*
X156688793Y-122790754I-48907J10396D01*
G01*
G37*
%TD*%
%TO.C,D21*%
G36*
G01*
X138821562Y-111233940D02*
X138821562Y-111233940D01*
G75*
G02*
X138166862Y-110225790I176725J831425D01*
G01*
X138166862Y-110225790D01*
G75*
G02*
X139175012Y-109571090I831425J-176725D01*
G01*
X139175012Y-109571090D01*
G75*
G02*
X139829712Y-110579240I-176725J-831425D01*
G01*
X139829712Y-110579240D01*
G75*
G02*
X138821562Y-111233940I-831425J176725D01*
G01*
G37*
G36*
G01*
X138019793Y-118853754D02*
X136454757Y-118521096D01*
G75*
G02*
X136416246Y-118461793I10396J48907D01*
G01*
X136748904Y-116896757D01*
G75*
G02*
X136808207Y-116858246I48907J-10396D01*
G01*
X138373243Y-117190904D01*
G75*
G02*
X138411754Y-117250207I-10396J-48907D01*
G01*
X138079096Y-118815243D01*
G75*
G02*
X138019793Y-118853754I-48907J10396D01*
G01*
G37*
%TD*%
%TO.C,D20*%
G36*
G01*
X119452658Y-106805087D02*
X119452658Y-106805087D01*
G75*
G02*
X118696163Y-105870894I88849J845344D01*
G01*
X118696163Y-105870894D01*
G75*
G02*
X119630356Y-105114399I845344J-88849D01*
G01*
X119630356Y-105114399D01*
G75*
G02*
X120386851Y-106048592I-88849J-845344D01*
G01*
X120386851Y-106048592D01*
G75*
G02*
X119452658Y-106805087I-845344J88849D01*
G01*
G37*
G36*
G01*
X119451769Y-114466966D02*
X117860534Y-114299721D01*
G75*
G02*
X117816034Y-114244769I5226J49726D01*
G01*
X117983279Y-112653534D01*
G75*
G02*
X118038231Y-112609034I49726J-5226D01*
G01*
X119629466Y-112776279D01*
G75*
G02*
X119673966Y-112831231I-5226J-49726D01*
G01*
X119506721Y-114422466D01*
G75*
G02*
X119451769Y-114466966I-49726J5226D01*
G01*
G37*
%TD*%
%TO.C,D19*%
X96393000Y-106045000D03*
G36*
G01*
X97193000Y-114515000D02*
X95593000Y-114515000D01*
G75*
G02*
X95543000Y-114465000I0J50000D01*
G01*
X95543000Y-112865000D01*
G75*
G02*
X95593000Y-112815000I50000J0D01*
G01*
X97193000Y-112815000D01*
G75*
G02*
X97243000Y-112865000I0J-50000D01*
G01*
X97243000Y-114465000D01*
G75*
G02*
X97193000Y-114515000I-50000J0D01*
G01*
G37*
%TD*%
%TO.C,D18*%
X68580000Y-106172000D03*
G36*
G01*
X69380000Y-114642000D02*
X67780000Y-114642000D01*
G75*
G02*
X67730000Y-114592000I0J50000D01*
G01*
X67730000Y-112992000D01*
G75*
G02*
X67780000Y-112942000I50000J0D01*
G01*
X69380000Y-112942000D01*
G75*
G02*
X69430000Y-112992000I0J-50000D01*
G01*
X69430000Y-114592000D01*
G75*
G02*
X69380000Y-114642000I-50000J0D01*
G01*
G37*
%TD*%
%TO.C,D17*%
X372237000Y-85788500D03*
G36*
G01*
X373037000Y-94258500D02*
X371437000Y-94258500D01*
G75*
G02*
X371387000Y-94208500I0J50000D01*
G01*
X371387000Y-92608500D01*
G75*
G02*
X371437000Y-92558500I50000J0D01*
G01*
X373037000Y-92558500D01*
G75*
G02*
X373087000Y-92608500I0J-50000D01*
G01*
X373087000Y-94208500D01*
G75*
G02*
X373037000Y-94258500I-50000J0D01*
G01*
G37*
%TD*%
%TO.C,D46*%
X330581000Y-90170000D03*
G36*
G01*
X331381000Y-98640000D02*
X329781000Y-98640000D01*
G75*
G02*
X329731000Y-98590000I0J50000D01*
G01*
X329731000Y-96990000D01*
G75*
G02*
X329781000Y-96940000I50000J0D01*
G01*
X331381000Y-96940000D01*
G75*
G02*
X331431000Y-96990000I0J-50000D01*
G01*
X331431000Y-98590000D01*
G75*
G02*
X331381000Y-98640000I-50000J0D01*
G01*
G37*
%TD*%
%TO.C,D16*%
X312864500Y-88138000D03*
G36*
G01*
X313664500Y-96608000D02*
X312064500Y-96608000D01*
G75*
G02*
X312014500Y-96558000I0J50000D01*
G01*
X312014500Y-94958000D01*
G75*
G02*
X312064500Y-94908000I50000J0D01*
G01*
X313664500Y-94908000D01*
G75*
G02*
X313714500Y-94958000I0J-50000D01*
G01*
X313714500Y-96558000D01*
G75*
G02*
X313664500Y-96608000I-50000J0D01*
G01*
G37*
%TD*%
%TO.C,D15*%
G36*
G01*
X293424342Y-88517087D02*
X293424342Y-88517087D01*
G75*
G02*
X292490149Y-87760592I-88849J845344D01*
G01*
X292490149Y-87760592D01*
G75*
G02*
X293246644Y-86826399I845344J88849D01*
G01*
X293246644Y-86826399D01*
G75*
G02*
X294180837Y-87582894I88849J-845344D01*
G01*
X294180837Y-87582894D01*
G75*
G02*
X293424342Y-88517087I-845344J-88849D01*
G01*
G37*
G36*
G01*
X295016466Y-96011721D02*
X293425231Y-96178966D01*
G75*
G02*
X293370279Y-96134466I-5226J49726D01*
G01*
X293203034Y-94543231D01*
G75*
G02*
X293247534Y-94488279I49726J5226D01*
G01*
X294838769Y-94321034D01*
G75*
G02*
X294893721Y-94365534I5226J-49726D01*
G01*
X295060966Y-95956769D01*
G75*
G02*
X295016466Y-96011721I-49726J-5226D01*
G01*
G37*
%TD*%
%TO.C,D14*%
G36*
G01*
X273928438Y-92437940D02*
X273928438Y-92437940D01*
G75*
G02*
X272920288Y-91783240I-176725J831425D01*
G01*
X272920288Y-91783240D01*
G75*
G02*
X273574988Y-90775090I831425J176725D01*
G01*
X273574988Y-90775090D01*
G75*
G02*
X274583138Y-91429790I176725J-831425D01*
G01*
X274583138Y-91429790D01*
G75*
G02*
X273928438Y-92437940I-831425J-176725D01*
G01*
G37*
G36*
G01*
X276295243Y-99725096D02*
X274730207Y-100057754D01*
G75*
G02*
X274670904Y-100019243I-10396J48907D01*
G01*
X274338246Y-98454207D01*
G75*
G02*
X274376757Y-98394904I48907J10396D01*
G01*
X275941793Y-98062246D01*
G75*
G02*
X276001096Y-98100757I10396J-48907D01*
G01*
X276333754Y-99665793D01*
G75*
G02*
X276295243Y-99725096I-48907J-10396D01*
G01*
G37*
%TD*%
%TO.C,D13*%
G36*
G01*
X255386438Y-96755940D02*
X255386438Y-96755940D01*
G75*
G02*
X254378288Y-96101240I-176725J831425D01*
G01*
X254378288Y-96101240D01*
G75*
G02*
X255032988Y-95093090I831425J176725D01*
G01*
X255032988Y-95093090D01*
G75*
G02*
X256041138Y-95747790I176725J-831425D01*
G01*
X256041138Y-95747790D01*
G75*
G02*
X255386438Y-96755940I-831425J-176725D01*
G01*
G37*
G36*
G01*
X257753243Y-104043096D02*
X256188207Y-104375754D01*
G75*
G02*
X256128904Y-104337243I-10396J48907D01*
G01*
X255796246Y-102772207D01*
G75*
G02*
X255834757Y-102712904I48907J10396D01*
G01*
X257399793Y-102380246D01*
G75*
G02*
X257459096Y-102418757I10396J-48907D01*
G01*
X257791754Y-103983793D01*
G75*
G02*
X257753243Y-104043096I-48907J-10396D01*
G01*
G37*
%TD*%
%TO.C,D12*%
G36*
G01*
X236717438Y-100565940D02*
X236717438Y-100565940D01*
G75*
G02*
X235709288Y-99911240I-176725J831425D01*
G01*
X235709288Y-99911240D01*
G75*
G02*
X236363988Y-98903090I831425J176725D01*
G01*
X236363988Y-98903090D01*
G75*
G02*
X237372138Y-99557790I176725J-831425D01*
G01*
X237372138Y-99557790D01*
G75*
G02*
X236717438Y-100565940I-831425J-176725D01*
G01*
G37*
G36*
G01*
X239084243Y-107853096D02*
X237519207Y-108185754D01*
G75*
G02*
X237459904Y-108147243I-10396J48907D01*
G01*
X237127246Y-106582207D01*
G75*
G02*
X237165757Y-106522904I48907J10396D01*
G01*
X238730793Y-106190246D01*
G75*
G02*
X238790096Y-106228757I10396J-48907D01*
G01*
X239122754Y-107793793D01*
G75*
G02*
X239084243Y-107853096I-48907J-10396D01*
G01*
G37*
%TD*%
%TO.C,D11*%
G36*
G01*
X218175438Y-104248940D02*
X218175438Y-104248940D01*
G75*
G02*
X217167288Y-103594240I-176725J831425D01*
G01*
X217167288Y-103594240D01*
G75*
G02*
X217821988Y-102586090I831425J176725D01*
G01*
X217821988Y-102586090D01*
G75*
G02*
X218830138Y-103240790I176725J-831425D01*
G01*
X218830138Y-103240790D01*
G75*
G02*
X218175438Y-104248940I-831425J-176725D01*
G01*
G37*
G36*
G01*
X220542243Y-111536096D02*
X218977207Y-111868754D01*
G75*
G02*
X218917904Y-111830243I-10396J48907D01*
G01*
X218585246Y-110265207D01*
G75*
G02*
X218623757Y-110205904I48907J10396D01*
G01*
X220188793Y-109873246D01*
G75*
G02*
X220248096Y-109911757I10396J-48907D01*
G01*
X220580754Y-111476793D01*
G75*
G02*
X220542243Y-111536096I-48907J-10396D01*
G01*
G37*
%TD*%
%TO.C,D10*%
G36*
G01*
X207909562Y-106661940D02*
X207909562Y-106661940D01*
G75*
G02*
X207254862Y-105653790I176725J831425D01*
G01*
X207254862Y-105653790D01*
G75*
G02*
X208263012Y-104999090I831425J-176725D01*
G01*
X208263012Y-104999090D01*
G75*
G02*
X208917712Y-106007240I-176725J-831425D01*
G01*
X208917712Y-106007240D01*
G75*
G02*
X207909562Y-106661940I-831425J176725D01*
G01*
G37*
G36*
G01*
X207107793Y-114281754D02*
X205542757Y-113949096D01*
G75*
G02*
X205504246Y-113889793I10396J48907D01*
G01*
X205836904Y-112324757D01*
G75*
G02*
X205896207Y-112286246I48907J-10396D01*
G01*
X207461243Y-112618904D01*
G75*
G02*
X207499754Y-112678207I-10396J-48907D01*
G01*
X207167096Y-114243243D01*
G75*
G02*
X207107793Y-114281754I-48907J10396D01*
G01*
G37*
%TD*%
%TO.C,D9*%
G36*
G01*
X189304062Y-102788440D02*
X189304062Y-102788440D01*
G75*
G02*
X188649362Y-101780290I176725J831425D01*
G01*
X188649362Y-101780290D01*
G75*
G02*
X189657512Y-101125590I831425J-176725D01*
G01*
X189657512Y-101125590D01*
G75*
G02*
X190312212Y-102133740I-176725J-831425D01*
G01*
X190312212Y-102133740D01*
G75*
G02*
X189304062Y-102788440I-831425J176725D01*
G01*
G37*
G36*
G01*
X188502293Y-110408254D02*
X186937257Y-110075596D01*
G75*
G02*
X186898746Y-110016293I10396J48907D01*
G01*
X187231404Y-108451257D01*
G75*
G02*
X187290707Y-108412746I48907J-10396D01*
G01*
X188855743Y-108745404D01*
G75*
G02*
X188894254Y-108804707I-10396J-48907D01*
G01*
X188561596Y-110369743D01*
G75*
G02*
X188502293Y-110408254I-48907J10396D01*
G01*
G37*
%TD*%
%TO.C,D8*%
G36*
G01*
X170698562Y-98724440D02*
X170698562Y-98724440D01*
G75*
G02*
X170043862Y-97716290I176725J831425D01*
G01*
X170043862Y-97716290D01*
G75*
G02*
X171052012Y-97061590I831425J-176725D01*
G01*
X171052012Y-97061590D01*
G75*
G02*
X171706712Y-98069740I-176725J-831425D01*
G01*
X171706712Y-98069740D01*
G75*
G02*
X170698562Y-98724440I-831425J176725D01*
G01*
G37*
G36*
G01*
X169896793Y-106344254D02*
X168331757Y-106011596D01*
G75*
G02*
X168293246Y-105952293I10396J48907D01*
G01*
X168625904Y-104387257D01*
G75*
G02*
X168685207Y-104348746I48907J-10396D01*
G01*
X170250243Y-104681404D01*
G75*
G02*
X170288754Y-104740707I-10396J-48907D01*
G01*
X169956096Y-106305743D01*
G75*
G02*
X169896793Y-106344254I-48907J10396D01*
G01*
G37*
%TD*%
%TO.C,D7*%
G36*
G01*
X151966062Y-94533440D02*
X151966062Y-94533440D01*
G75*
G02*
X151311362Y-93525290I176725J831425D01*
G01*
X151311362Y-93525290D01*
G75*
G02*
X152319512Y-92870590I831425J-176725D01*
G01*
X152319512Y-92870590D01*
G75*
G02*
X152974212Y-93878740I-176725J-831425D01*
G01*
X152974212Y-93878740D01*
G75*
G02*
X151966062Y-94533440I-831425J176725D01*
G01*
G37*
G36*
G01*
X151164293Y-102153254D02*
X149599257Y-101820596D01*
G75*
G02*
X149560746Y-101761293I10396J48907D01*
G01*
X149893404Y-100196257D01*
G75*
G02*
X149952707Y-100157746I48907J-10396D01*
G01*
X151517743Y-100490404D01*
G75*
G02*
X151556254Y-100549707I-10396J-48907D01*
G01*
X151223596Y-102114743D01*
G75*
G02*
X151164293Y-102153254I-48907J10396D01*
G01*
G37*
%TD*%
%TO.C,D6*%
G36*
G01*
X132787658Y-90295087D02*
X132787658Y-90295087D01*
G75*
G02*
X132031163Y-89360894I88849J845344D01*
G01*
X132031163Y-89360894D01*
G75*
G02*
X132965356Y-88604399I845344J-88849D01*
G01*
X132965356Y-88604399D01*
G75*
G02*
X133721851Y-89538592I-88849J-845344D01*
G01*
X133721851Y-89538592D01*
G75*
G02*
X132787658Y-90295087I-845344J88849D01*
G01*
G37*
G36*
G01*
X132786769Y-97956966D02*
X131195534Y-97789721D01*
G75*
G02*
X131151034Y-97734769I5226J49726D01*
G01*
X131318279Y-96143534D01*
G75*
G02*
X131373231Y-96099034I49726J-5226D01*
G01*
X132964466Y-96266279D01*
G75*
G02*
X133008966Y-96321231I-5226J-49726D01*
G01*
X132841721Y-97912466D01*
G75*
G02*
X132786769Y-97956966I-49726J5226D01*
G01*
G37*
%TD*%
%TO.C,D5*%
X113284000Y-87312500D03*
G36*
G01*
X114084000Y-95782500D02*
X112484000Y-95782500D01*
G75*
G02*
X112434000Y-95732500I0J50000D01*
G01*
X112434000Y-94132500D01*
G75*
G02*
X112484000Y-94082500I50000J0D01*
G01*
X114084000Y-94082500D01*
G75*
G02*
X114134000Y-94132500I0J-50000D01*
G01*
X114134000Y-95732500D01*
G75*
G02*
X114084000Y-95782500I-50000J0D01*
G01*
G37*
%TD*%
%TO.C,D4*%
X94424500Y-87249000D03*
G36*
G01*
X95224500Y-95719000D02*
X93624500Y-95719000D01*
G75*
G02*
X93574500Y-95669000I0J50000D01*
G01*
X93574500Y-94069000D01*
G75*
G02*
X93624500Y-94019000I50000J0D01*
G01*
X95224500Y-94019000D01*
G75*
G02*
X95274500Y-94069000I0J-50000D01*
G01*
X95274500Y-95669000D01*
G75*
G02*
X95224500Y-95719000I-50000J0D01*
G01*
G37*
%TD*%
%TO.C,D3*%
X72834500Y-87122000D03*
G36*
G01*
X73634500Y-95592000D02*
X72034500Y-95592000D01*
G75*
G02*
X71984500Y-95542000I0J50000D01*
G01*
X71984500Y-93942000D01*
G75*
G02*
X72034500Y-93892000I50000J0D01*
G01*
X73634500Y-93892000D01*
G75*
G02*
X73684500Y-93942000I0J-50000D01*
G01*
X73684500Y-95542000D01*
G75*
G02*
X73634500Y-95592000I-50000J0D01*
G01*
G37*
%TD*%
%TO.C,D2*%
X157480000Y-83883500D03*
G36*
G01*
X165950000Y-83083500D02*
X165950000Y-84683500D01*
G75*
G02*
X165900000Y-84733500I-50000J0D01*
G01*
X164300000Y-84733500D01*
G75*
G02*
X164250000Y-84683500I0J50000D01*
G01*
X164250000Y-83083500D01*
G75*
G02*
X164300000Y-83033500I50000J0D01*
G01*
X165900000Y-83033500D01*
G75*
G02*
X165950000Y-83083500I0J-50000D01*
G01*
G37*
%TD*%
%TO.C,D1*%
X157480000Y-80772000D03*
G36*
G01*
X165950000Y-79972000D02*
X165950000Y-81572000D01*
G75*
G02*
X165900000Y-81622000I-50000J0D01*
G01*
X164300000Y-81622000D01*
G75*
G02*
X164250000Y-81572000I0J50000D01*
G01*
X164250000Y-79972000D01*
G75*
G02*
X164300000Y-79922000I50000J0D01*
G01*
X165900000Y-79922000D01*
G75*
G02*
X165950000Y-79972000I0J-50000D01*
G01*
G37*
%TD*%
D20*
%TO.C,C5*%
X236744500Y-68961000D03*
X241744500Y-68961000D03*
%TD*%
%TO.C,C4*%
X236681000Y-84772500D03*
X241681000Y-84772500D03*
%TD*%
%TO.C,C3*%
X210208500Y-88201500D03*
X207708500Y-88201500D03*
%TD*%
%TO.C,C2*%
X207748500Y-66929000D03*
X210248500Y-66929000D03*
%TD*%
D19*
%TO.C,Boot1*%
X258071959Y-70693426D03*
X257136357Y-75095090D03*
X251714000Y-69342000D03*
X250778397Y-73743664D03*
%TD*%
M02*
